Coordinates
version=1
nRows=14
nColumns=36
inDegrees=yes

Units are S.I. units (second, meters, Newtons, ...)
If the header above contains a line with 'inDegrees', this indicates whether rotational values are in degrees (yes) or radians (no).

endheader
time	pelvis_tilt	pelvis_list	pelvis_rotation	pelvis_tx	pelvis_ty	pelvis_tz	hip_flexion_r	hip_adduction_r	hip_rotation_r	knee_angle_r	knee_angle_r_beta	ankle_angle_r	subtalar_angle_r	mtp_angle_r	hip_flexion_l	hip_adduction_l	hip_rotation_l	knee_angle_l	knee_angle_l_beta	ankle_angle_l	subtalar_angle_l	mtp_angle_l	lumbar_extension	lumbar_bending	lumbar_rotation	arm_flex_r	arm_add_r	arm_rot_r	elbow_flex_r	pro_sup_r	arm_flex_l	arm_add_l	arm_rot_l	elbow_flex_l	pro_sup_l
      0.96000000	     -2.18013163	      0.44541427	     -0.97079904	      1.13618127	      0.93962838	     -0.23160466	     28.67304362	     -1.91671394	     -3.06805500	      1.62234427	      0.02831525	      3.61120100	      5.96447678	     -7.14306315	    -12.26929857	      0.62742561	     -6.36400937	      6.25248883	      0.10912652	     18.76008285	      4.69158769	     -7.14306315	     -5.44914948	     -9.36825672	    -10.95365273	     -6.31943630	     -8.32993833	     -7.75511089	     56.75919739	    108.26801161	     13.80862288	    -12.24254027	      0.89677687	     52.33216449	    105.54855384
      0.97000000	     -2.37871250	      0.51723521	     -0.87965517	      1.14789191	      0.93697946	     -0.23045631	     28.94118285	     -2.11826336	     -3.05764291	      1.66381104	      0.02903898	      3.67137003	      5.91385696	     -7.14353536	    -12.79877080	      0.57581872	     -6.45208389	      6.34386197	      0.11072128	     18.77877375	      4.71326576	     -7.14353536	     -5.37561895	     -9.05583754	    -11.18722961	     -6.41846537	     -8.45179644	     -7.85793113	     56.63456428	    108.25347705	     14.11323022	    -12.32151341	      0.92600829	     52.40567702	    105.54506088
      0.98000000	     -2.42798657	      0.37964624	     -0.62500522	      1.15982665	      0.93467580	     -0.22927489	     29.05637918	     -2.13326541	     -3.24303282	      2.31697082	      0.04043877	      4.17892854	      4.71867198	     -7.15034270	    -13.33917556	      0.19202920	     -6.71948600	      6.74215483	      0.11767280	     19.12770829	      5.39319047	     -7.15034270	     -5.47316681	     -8.51854440	    -11.43750841	     -6.31346554	     -8.29251311	     -8.57025656	     55.99106461	    108.17200926	     14.59039860	    -12.55215156	      1.80897792	     52.13326270	    105.41885218
      0.99000000	     -2.48894313	      0.18779810	     -0.40567912	      1.17200099	      0.93252906	     -0.22800601	     29.12680970	     -2.07034670	     -3.19269667	      3.23689331	      0.05649445	      4.07775509	      3.98084679	     -7.15262500	    -13.85925995	     -0.22419326	     -6.75544106	      7.17419702	      0.12521336	     19.11048682	      5.55876418	     -7.15262500	     -5.59835673	     -7.85805667	    -11.70085878	     -6.30258862	     -8.30409724	     -8.86090832	     55.66766426	    108.13514968	     14.84411677	    -12.56358985	      2.04526445	     52.01912636	    105.37373618
      1.00000000	     -2.66250629	     -0.05456055	     -0.11156508	      1.18432019	      0.93034294	     -0.22642412	     29.18539635	     -1.86680146	     -2.32304109	      4.16046441	      0.07261380	      2.73021337	      0.52078667	     -7.16736802	    -14.04420682	     -0.82168007	     -7.17092948	      8.02309424	      0.14002941	     19.55973577	      6.42971054	     -7.16736802	     -5.46328030	     -7.23241678	    -11.69335243	     -6.40277390	     -8.14940670	     -9.78168836	     55.22299457	    108.09482150	     15.36280784	    -12.65471748	      3.05755704	     51.39363368	    105.10797439
      1.01000000	     -2.63150509	     -0.41328744	      0.17762793	      1.19703516	      0.92875965	     -0.22489809	     29.03938180	     -1.60986339	     -2.28370331	      5.33687671	      0.09314607	      2.28478324	      0.00797898	     -7.16911517	    -14.56174969	     -1.47428403	     -7.05204521	      8.65358013	      0.15103347	     19.28343313	      6.40353362	     -7.16911517	     -5.62950395	     -6.41274738	    -11.89873140	     -6.35014855	     -8.21372539	     -9.98966426	     54.90261623	    108.06500806	     15.43395265	    -12.56946928	      3.11791838	     51.29304999	    105.07849719
      1.02000000	     -2.69909793	     -0.87118769	      0.51098495	      1.20985179	      0.92733951	     -0.22310989	     28.87188123	     -1.14138264	     -1.87076948	      6.22963279	      0.10872760	     -0.05630526	     -3.31236845	     -7.18670210	    -14.75790336	     -2.30040991	     -7.09621047	      9.68800829	      0.16908764	     19.05874676	      6.21219497	     -7.18670210	     -5.64289628	     -5.49368795	    -12.04454542	     -6.28665083	     -8.11250220	    -10.56293044	     54.34062599	    108.06562121	     15.59274456	    -12.45458059	      3.38355097	     50.85868704	    104.92112459
      1.03000000	     -2.64785806	     -1.40328103	      0.84845431	      1.22298225	      0.92640301	     -0.22127238	     28.62247028	     -0.66645058	     -2.27374301	      7.27786958	      0.12702279	     -1.20484256	     -3.92065340	     -7.19041337	    -15.05269203	     -3.20703347	     -7.03356092	     10.76572395	      0.18789733	     18.56089425	      5.90130296	     -7.19041337	     -5.77125345	     -4.48247414	    -12.21263807	     -6.16238520	     -8.11604194	    -10.83986703	     53.84468059	    108.02563154	     15.54211633	    -12.29211846	      3.38918683	     50.60752613	    104.89335291
      1.04000000	     -2.59158181	     -2.01030123	      1.17423716	      1.23627903	      0.92579105	     -0.21921913	     28.29281211	     -0.06757344	     -2.59517984	      8.15210393	      0.14228105	     -2.65988363	     -4.65933290	     -7.19404790	    -15.24950826	     -4.20637133	     -6.87733553	     12.02266965	      0.20983517	     17.92730063	      5.44147960	     -7.19404790	     -5.88517426	     -3.38338894	    -12.31675161	     -6.03551756	     -8.10513094	    -11.09751690	     53.34246292	    107.98598979	     15.40230885	    -12.08297134	      3.34923910	     50.29707006	    104.87583637
      1.05000000	     -2.55700144	     -2.64915873	      1.45079866	      1.24964489	      0.92545393	     -0.21687968	     27.86702476	      0.69404409	     -2.25614342	      8.73912430	      0.15252649	     -5.13267049	     -6.97480157	     -7.21016978	    -15.35681130	     -5.19066890	     -6.32406154	     13.35854750	      0.23315064	     16.92258177	      4.28223961	     -7.21016978	     -5.94470205	     -2.27719406	    -12.36565616	     -5.85930223	     -8.09530879	    -11.29307266	     52.82094946	    107.99016100	     15.18257908	    -11.84247180	      3.15154882	     49.97735352	    104.95987184
      1.06000000	     -2.41713375	     -3.35304724	      1.74554701	      1.26323344	      0.92550139	     -0.21444473	     27.43240513	      1.45096957	     -2.78948637	      9.62634858	      0.16801148	     -6.05051816	     -7.28316866	     -7.21468742	    -15.38910790	     -6.32010685	     -6.13859514	     15.02054500	      0.26215797	     15.91268949	      3.63009236	     -7.21468742	     -6.10244964	     -1.09749031	    -12.36151847	     -5.69206203	     -8.08912161	    -11.45518137	     52.37511867	    107.95658592	     14.91003065	    -11.60675014	      3.06588349	     49.65659981	    104.96984320
      1.07000000	     -2.19597352	     -4.02516537	      2.01557337	      1.27684162	      0.92590484	     -0.21187589	     26.89982255	      2.22036761	     -3.25349503	     10.53128679	      0.18380563	     -6.59751844	     -7.69936537	     -7.21751708	    -15.30382976	     -7.42169688	     -5.88809173	     17.01729299	      0.29700779	     14.68720437	      2.86197106	     -7.21751708	     -6.38701750	      0.03595293	    -12.24509011	     -5.51417302	     -8.05196832	    -11.55251456	     51.94391756	    107.92298670	     14.63639006	    -11.33635347	      2.98063754	     49.37449626	    104.97178751
      1.08000000	     -2.12785648	     -4.67642636	      2.28496836	      1.29043955	      0.92639485	     -0.20924845	     26.52611000	      2.98769413	     -3.60863801	     11.45257584	      0.19988516	     -7.44016246	     -8.59979864	     -7.22691604	    -14.90668923	     -8.38724324	     -4.94430231	     19.15009738	      0.33423225	     12.68253503	      0.72866865	     -7.22691604	     -6.44300491	      1.13938952	    -12.20431209	     -5.25790067	     -8.00191707	    -11.58462636	     51.41090670	    107.88808000	     14.20185317	    -11.05368537	      2.70232056	     48.98073764	    105.04601541
      1.09000000	     -1.81638284	     -5.33841461	      2.49147992	      1.30401980	      0.92734768	     -0.20635923	     25.84943256	      3.83599601	     -3.90591801	     12.38765637	      0.21620539	     -7.17734942	     -9.13260021	     -7.22976716	    -14.49206403	     -9.49604502	     -4.70138448	     21.77376426	      0.38002388	     10.95786661	     -0.13246136	     -7.22976716	     -6.84620335	      2.22405182	    -11.93541935	     -5.01439518	     -7.93991531	    -11.60034877	     51.03167133	    107.85671124	     13.86091987	    -10.83131645	      2.69261796	     48.71059964	    105.06224023
